<svg width="26" height="26" viewBox="0 0 26 26" fill="none" xmlns="http://www.w3.org/2000/svg">
<rect width="26" height="26" rx="13" fill="#FF9315"/>
<path d="M20 9.18711C19.4759 9.39081 18.9201 9.52462 18.351 9.58413C18.9506 9.26865 19.3992 8.77243 19.6133 8.18792C19.0501 8.48237 18.4327 8.68872 17.7898 8.80035C17.3576 8.39402 16.7846 8.12454 16.16 8.03381C15.5354 7.94308 14.8942 8.03617 14.336 8.29861C13.7779 8.56106 13.3341 8.97815 13.0736 9.48505C12.8131 9.99195 12.7505 10.5603 12.8956 11.1016C11.7534 11.0514 10.636 10.7907 9.61589 10.3365C8.59582 9.8822 7.69591 9.24453 6.97459 8.46487C6.71929 8.85009 6.58513 9.28801 6.58585 9.73377C6.58585 10.6087 7.09341 11.3816 7.86332 11.8341C7.40729 11.8215 6.9613 11.7133 6.5625 11.5185V11.5493C6.56248 12.1321 6.79192 12.697 7.2119 13.1481C7.63189 13.5992 8.21656 13.9088 8.86676 14.0244C8.44343 14.1253 7.99951 14.1401 7.56868 14.0678C7.75201 14.5694 8.10935 15.0081 8.59066 15.3225C9.07197 15.6368 9.65313 15.811 10.2527 15.8206C9.65684 16.2318 8.97451 16.5357 8.24479 16.715C7.51506 16.8944 6.75226 16.9455 6 16.8657C7.313 17.6074 8.84142 18.0012 10.4025 18C15.6868 18 18.5756 14.1547 18.5756 10.8198C18.5756 10.7112 18.5728 10.6014 18.5673 10.4934C19.1294 10.1364 19.6146 9.69368 20 9.18711Z" fill="white"/>
</svg>
