<svg width="26" height="26" viewBox="0 0 26 26" fill="none" xmlns="http://www.w3.org/2000/svg">
<rect width="26" height="26" rx="13" fill="#FF9315"/>
<path d="M11.6 15.1429L15.233 13L11.6 10.8571V15.1429ZM19.692 9.55C19.783 9.88571 19.846 10.3357 19.888 10.9071C19.937 11.4786 19.958 11.9714 19.958 12.4L20 13C20 14.5643 19.888 15.7143 19.692 16.45C19.517 17.0929 19.111 17.5071 18.481 17.6857C18.152 17.7786 17.55 17.8429 16.626 17.8857C15.716 17.9357 14.883 17.9571 14.113 17.9571L13 18C10.067 18 8.24 17.8857 7.519 17.6857C6.889 17.5071 6.483 17.0929 6.308 16.45C6.217 16.1143 6.154 15.6643 6.112 15.0929C6.063 14.5214 6.042 14.0286 6.042 13.6L6 13C6 11.4357 6.112 10.2857 6.308 9.55C6.483 8.90714 6.889 8.49286 7.519 8.31429C7.848 8.22143 8.45 8.15714 9.374 8.11429C10.284 8.06429 11.117 8.04286 11.887 8.04286L13 8C15.933 8 17.76 8.11429 18.481 8.31429C19.111 8.49286 19.517 8.90714 19.692 9.55Z" fill="white"/>
</svg>
